<?xml version="1.0" encoding="UTF-8"?>
<svg id="Layer_1" xmlns="http://www.w3.org/2000/svg" xmlns:xlink="http://www.w3.org/1999/xlink" version="1.1" viewBox="0 0 850 300">
  <!-- Generator: Adobe Illustrator 30.3.0, SVG Export Plug-In . SVG Version: 2.1.3 Build 182)  -->
  <defs>
    <style>
      .st0 {
        fill: url(#linear-gradient);
      }

      .st1 {
        fill: #fff;
      }

      .st2 {
        stroke-linejoin: round;
      }

      .st2, .st3 {
        fill: none;
        stroke: #fff;
        stroke-linecap: round;
        stroke-width: 12px;
      }

      .st4 {
        fill: #999;
        font-family: JetBrainsMono-Regular, 'JetBrains Mono';
        font-size: 43.18px;
      }

      .st5 {
        font-family: PlusJakartaSans-ExtraBold, 'Plus Jakarta Sans';
        font-size: 94.01px;
        font-weight: 700;
      }
    </style>
    <linearGradient id="linear-gradient" x1="-1389.52" y1="59.6" x2="-1388.52" y2="58.6" gradientTransform="translate(266827 -11200) scale(192)" gradientUnits="userSpaceOnUse">
      <stop offset="0" stop-color="#1a3aaa"/>
      <stop offset=".55" stop-color="#00bcd4"/>
      <stop offset="1" stop-color="#7eefc0"/>
    </linearGradient>
  </defs>
  <g id="Layer_11" data-name="Layer_1">
    <rect class="st0" x="39.76" y="51.37" width="192" height="192" rx="40" ry="40"/>
  </g>
  <g id="Layer_2">
    <path class="st1" d="M105.76,96.87h42c6.63,0,12,5.37,12,12v6h12v-6c0-13.25-10.75-24-24-24h-42c-6.63,0-12,5.37-12,12v96c0,6.63,5.37,12,12,12h60c6.63,0,12-5.37,12-12h0v-19.02l-12,7.02v12h-60v-96Z"/>
    <polyline class="st2" points="147.76 96.87 147.76 120.87 171.76 120.87"/>
    <line class="st3" x1="165.76" y1="150.87" x2="117.76" y2="150.87"/>
    <line class="st3" x1="171.76" y1="174.87" x2="117.76" y2="174.87"/>
  </g>
  <text class="st5" transform="translate(267.79 156.69)"><tspan x="0" y="0">MediaTrack</tspan></text>
  <text class="st4" transform="translate(271.92 216.76)"><tspan x="0" y="0">Media Data Tracking</tspan></text>
</svg>